<?xml version="1.0" encoding="UTF-8" standalone="no"?>
<!DOCTYPE svg PUBLIC "-//W3C//DTD SVG 1.1//EN" "http://www.w3.org/Graphics/SVG/1.1/DTD/svg11.dtd">
<svg version="1.1" xmlns="http://www.w3.org/2000/svg" xmlns:xlink="http://www.w3.org/1999/xlink" preserveAspectRatio="xMidYMid meet" viewBox="0 0 640 640" width="640" height="640"><defs><path d="M123.23 3.2L127.7 3.65L132.11 4.26L136.47 5.05L140.76 6L144.99 7.11L149.15 8.37L153.24 9.8L157.25 11.37L161.18 13.09L165.03 14.95L168.8 16.96L172.47 19.1L176.05 21.37L179.54 23.77L182.92 26.3L186.2 28.96L189.38 31.73L192.44 34.62L195.39 37.62L198.22 40.73L200.92 43.94L203.51 47.26L205.96 50.67L208.28 54.18L210.46 57.79L212.51 61.47L214.41 65.25L216.17 69.1L217.77 73.03L219.22 77.04L220.52 81.12L221.65 85.26L222.62 89.47L223.42 93.73L224.05 98.06L224.5 102.43L224.77 106.86L224.87 111.33L224.77 115.8L224.5 120.24L224.05 124.64L223.42 129.02L222.62 133.37L221.65 137.71L220.52 142.03L219.22 146.35L217.77 150.67L216.17 154.99L214.41 159.31L212.51 163.65L210.46 168.01L208.28 172.39L205.96 176.8L203.51 181.25L200.92 185.73L198.22 190.26L195.39 194.83L192.44 199.46L189.38 204.15L186.2 208.9L182.92 213.72L179.54 218.62L176.05 223.59L172.47 228.65L168.8 233.8L165.03 239.04L161.18 244.39L157.25 249.83L153.24 255.39L149.15 261.06L144.99 266.85L140.76 272.77L136.47 278.82L132.11 285L127.7 291.32L123.23 297.79L118.72 304.4L114.15 311.18L109.59 304.4L105.07 297.79L100.61 291.32L96.19 285L91.84 278.82L87.55 272.77L83.32 266.85L79.16 261.06L75.07 255.39L71.06 249.83L67.12 244.39L63.27 239.04L59.51 233.8L55.83 228.65L52.25 223.59L48.77 218.62L45.38 213.72L42.1 208.9L38.93 204.15L35.87 199.46L32.92 194.83L30.09 190.26L27.38 185.73L24.8 181.25L22.35 176.8L20.03 172.39L17.84 168.01L15.8 163.65L13.89 159.31L12.14 154.99L10.53 150.67L9.08 146.35L7.79 142.03L6.66 137.71L5.69 133.37L4.89 129.02L4.26 124.64L3.81 120.24L3.53 115.8L3.44 111.33L3.53 106.86L3.81 102.43L4.26 98.06L4.89 93.73L5.69 89.47L6.66 85.26L7.79 81.12L9.08 77.04L10.53 73.03L12.14 69.1L13.89 65.25L15.8 61.47L17.84 57.79L20.03 54.18L22.35 50.67L24.8 47.26L27.38 43.94L30.09 40.73L32.92 37.62L35.87 34.62L38.93 31.73L42.1 28.96L45.38 26.3L48.77 23.77L52.25 21.37L55.83 19.1L59.51 16.96L63.27 14.95L67.12 13.09L71.06 11.37L75.07 9.8L79.16 8.37L83.32 7.11L87.55 6L91.84 5.05L96.19 4.26L100.61 3.65L105.07 3.2L109.59 2.93L114.15 2.84L118.72 2.93L123.23 3.2Z" id="d1VcEhwyM"></path><path d="M119.16 170.86L139.2 170.86L139.2 175.31L89.1 175.31L89.1 170.86L109.14 170.86L109.14 116.05L52.23 65.51L176.08 65.51L119.16 116.05L119.16 170.86ZM64.05 61.86L64.05 57.41L164.26 57.41L164.26 61.86L64.05 61.86Z" id="cai179EJ2M"></path></defs><g><g><g><use xlink:href="#d1VcEhwyM" opacity="1" fill="#ffd500" fill-opacity="1"></use></g><g><use xlink:href="#cai179EJ2M" opacity="1" fill="#ffffff" fill-opacity="1"></use></g></g></g></svg>