<?xml version="1.0" encoding="UTF-8" standalone="no"?>
<!DOCTYPE svg PUBLIC "-//W3C//DTD SVG 1.1//EN" "http://www.w3.org/Graphics/SVG/1.1/DTD/svg11.dtd">
<svg version="1.1" xmlns="http://www.w3.org/2000/svg" xmlns:xlink="http://www.w3.org/1999/xlink" preserveAspectRatio="xMidYMid meet" viewBox="0 0 640 640" width="640" height="640"><defs><path d="M224.17 111.82C224.17 51.9 174.6 3.33 113.45 3.33C52.31 3.33 2.74 51.9 2.74 111.82C2.74 171.74 52.31 220.31 113.45 311.67C174.6 220.31 224.17 171.74 224.17 111.82Z" id="aafevfIpG"></path><path d="M52.61 133.2C34.64 128.18 23.31 112.56 27.29 98.31C31.28 84.06 49.07 76.59 67.03 81.61C85 86.64 96.33 102.26 119.74 124.16C88.36 130.75 70.57 138.23 52.61 133.2Z" id="b3bxP0wCZh"></path><path d="M141.54 59.07C155.06 44.12 174.92 40.05 185.89 49.98C196.86 59.91 194.79 80.07 181.26 95.02C167.74 109.96 147.88 114.03 116.29 126.9C125.94 94.18 128.01 74.02 141.54 59.07Z" id="aPtpRQLk3"></path><path d="M101.9 193.69L119.74 157.13L119.74 122.36" id="d1OYLulMkA"></path><path d="M90.5 118.24L64.29 112.41L65.29 109.01L66.28 105.61L91.49 114.85L116.7 124.08L90.5 118.24Z" id="aYtyzXqA4"></path><path d="M135.74 100.81L151.74 79.25L154.44 81.55L157.14 83.84L138.44 103.1L119.74 122.36L135.74 100.81Z" id="d1DZ1TlrMt"></path></defs><g><g><g><use xlink:href="#aafevfIpG" opacity="1" fill="#67d416" fill-opacity="1"></use></g><g><use xlink:href="#b3bxP0wCZh" opacity="1" fill="#fffefe" fill-opacity="1"></use><g><use xlink:href="#b3bxP0wCZh" opacity="1" fill-opacity="0" stroke="#ffffff" stroke-width="1" stroke-opacity="1"></use></g></g><g><use xlink:href="#aPtpRQLk3" opacity="1" fill="#fffefe" fill-opacity="1"></use><g><use xlink:href="#aPtpRQLk3" opacity="1" fill-opacity="0" stroke="#ffffff" stroke-width="1" stroke-opacity="1"></use></g></g><g><use xlink:href="#d1OYLulMkA" opacity="1" fill="#fffefe" fill-opacity="0"></use><g><use xlink:href="#d1OYLulMkA" opacity="1" fill-opacity="0" stroke="#ffffff" stroke-width="6" stroke-opacity="1"></use></g></g><g><use xlink:href="#aYtyzXqA4" opacity="1" fill="#67d416" fill-opacity="1"></use></g><g><use xlink:href="#d1DZ1TlrMt" opacity="1" fill="#67d416" fill-opacity="1"></use></g></g></g></svg>