<?xml version="1.0" encoding="UTF-8" standalone="no"?>
<!DOCTYPE svg PUBLIC "-//W3C//DTD SVG 1.1//EN" "http://www.w3.org/Graphics/SVG/1.1/DTD/svg11.dtd">
<svg version="1.1" xmlns="http://www.w3.org/2000/svg" xmlns:xlink="http://www.w3.org/1999/xlink" preserveAspectRatio="xMidYMid meet" viewBox="0 0 640 640" width="640" height="640"><defs><path d="M123.37 2.96L127.83 3.4L132.25 4.02L136.6 4.8L140.89 5.75L145.12 6.86L149.28 8.13L153.37 9.55L157.38 11.12L161.32 12.84L165.17 14.71L168.93 16.71L172.61 18.85L176.19 21.13L179.67 23.53L183.06 26.06L186.34 28.71L189.51 31.48L192.57 34.37L195.52 37.37L198.35 40.48L201.06 43.7L203.64 47.01L206.09 50.43L208.41 53.94L210.6 57.54L212.64 61.23L214.55 65L216.3 68.86L217.91 72.79L219.36 76.79L220.65 80.87L221.78 85.01L222.75 89.22L223.55 93.49L224.18 97.81L224.63 102.19L224.91 106.61L225 111.09L224.91 115.56L224.63 119.99L224.18 124.4L223.55 128.77L222.75 133.13L221.78 137.46L220.65 141.79L219.36 146.11L217.91 150.42L216.3 154.74L214.55 159.07L212.64 163.41L210.6 167.77L208.41 172.15L206.09 176.56L203.64 181L201.06 185.49L198.35 190.01L195.52 194.59L192.57 199.22L189.51 203.91L186.34 208.66L183.06 213.48L179.67 218.37L176.19 223.35L172.61 228.41L168.93 233.56L165.17 238.8L161.32 244.14L157.38 249.59L153.37 255.15L149.28 260.82L145.12 266.61L140.89 272.53L136.6 278.57L132.25 284.75L127.83 291.07L123.37 297.54L118.85 304.16L114.29 310.93L109.72 304.16L105.21 297.54L100.74 291.07L96.33 284.75L91.97 278.57L87.68 272.53L83.45 266.61L79.29 260.82L75.2 255.15L71.19 249.59L67.26 244.14L63.41 238.8L59.64 233.56L55.97 228.41L52.39 223.35L48.9 218.37L45.52 213.48L42.24 208.66L39.06 203.91L36 199.22L33.05 194.59L30.22 190.01L27.52 185.49L24.93 181L22.48 176.56L20.16 172.15L17.98 167.77L15.93 163.41L14.03 159.07L12.27 154.74L10.67 150.42L9.22 146.11L7.92 141.79L6.79 137.46L5.82 133.13L5.02 128.77L4.39 124.4L3.94 119.99L3.67 115.56L3.57 111.09L3.67 106.61L3.94 102.19L4.39 97.81L5.02 93.49L5.82 89.22L6.79 85.01L7.92 80.87L9.22 76.79L10.67 72.79L12.27 68.86L14.03 65L15.93 61.23L17.98 57.54L20.16 53.94L22.48 50.43L24.93 47.01L27.52 43.7L30.22 40.48L33.05 37.37L36 34.37L39.06 31.48L42.24 28.71L45.52 26.06L48.9 23.53L52.39 21.13L55.97 18.85L59.64 16.71L63.41 14.71L67.26 12.84L71.19 11.12L75.2 9.55L79.29 8.13L83.45 6.86L87.68 5.75L91.97 4.8L96.33 4.02L100.74 3.4L105.21 2.96L109.72 2.69L114.29 2.6L118.85 2.69L123.37 2.96Z" id="aijZa9onn"></path><path d="M42.31 153.32C42.31 139.68 62.8 128.63 88.08 128.63C113.36 128.63 133.86 139.68 133.86 153.32C133.86 166.96 113.36 178.02 88.08 198.82C62.8 178.02 42.31 166.96 42.31 153.32Z" id="nH8fYc4W4"></path><path d="M114.49 100.98C125.19 100.98 133.86 109.65 133.86 120.35C133.86 130.09 133.86 139.93 133.86 149.67C133.86 160.37 125.19 169.04 114.49 169.04C100.05 169.04 76.12 169.04 61.68 169.04C50.98 169.04 42.31 160.37 42.31 149.67C42.31 139.93 42.31 130.09 42.31 120.35C42.31 109.65 50.98 100.98 61.68 100.98C76.12 100.98 100.05 100.98 114.49 100.98Z" id="c1Y7YuSOPq"></path><path d="M123.94 147.13C123.94 162.51 107.92 175 88.19 175C68.45 175 52.43 162.51 52.43 147.13C52.43 131.74 68.45 119.25 88.19 119.25C107.92 119.25 123.94 131.74 123.94 147.13Z" id="gfU8X9m00"></path><path d="M88.08 95.32C88.08 81.68 108.58 70.62 133.86 70.62C159.14 70.62 179.64 81.68 179.64 95.32C179.64 108.96 159.14 120.01 133.86 140.81C108.58 120.01 88.08 108.96 88.08 95.32Z" id="a1eBh6eqct"></path><path d="M133.86 138.64C133.86 154.03 113.35 166.52 88.08 166.52C62.82 166.52 42.31 154.03 42.31 138.64C42.31 123.26 62.82 110.77 88.08 110.77C113.35 110.77 133.86 123.26 133.86 138.64Z" id="a1Dw3gpkrg"></path><path d="M72.9 105.71L57.71 94.4L88.08 94.4L118.45 94.4L103.27 105.71L88.08 117.03L72.9 105.71Z" id="j1Q9trxFBn"></path><path d="M159.67 39.78C170.7 39.78 179.64 48.72 179.64 59.75C179.64 70.56 179.64 83.02 179.64 93.83C179.64 104.86 170.7 113.8 159.67 113.8C145.35 113.8 122.37 113.8 108.05 113.8C97.02 113.8 88.08 104.86 88.08 93.83C88.08 83.02 88.08 70.56 88.08 59.75C88.08 48.72 97.02 39.78 108.05 39.78C122.37 39.78 145.35 39.78 159.67 39.78Z" id="dXZNvquCQ"></path><path d="M102.37 85.05C100.11 81.52 103.22 75.49 109.31 71.59C115.41 67.68 122.19 67.36 124.45 70.88C126.72 74.4 123.61 80.44 117.51 84.34C111.42 88.25 104.64 88.57 102.37 85.05Z" id="a306Vqs99Z"></path><path d="M165.71 84.05C163.77 87.75 156.98 88.04 150.57 84.68C144.15 81.32 140.52 75.59 142.46 71.88C144.41 68.18 151.19 67.89 157.61 71.25C164.02 74.61 167.65 80.34 165.71 84.05Z" id="af0DVxe9u"></path><path d="M169.62 126.45C169.62 146.17 153.59 162.18 133.86 162.18C114.12 162.18 98.1 146.17 98.1 126.45C98.1 106.74 114.12 90.73 133.86 90.73C153.59 90.73 169.62 106.74 169.62 126.45Z" id="d58TDd3AoW"></path><path d="M179.64 131.77C179.64 148.55 159.12 162.18 133.86 162.18C108.59 162.18 88.08 148.55 88.08 131.77C88.08 114.99 108.59 101.37 133.86 101.37C159.12 101.37 179.64 114.99 179.64 131.77Z" id="aCLqRYECI"></path><path d="M81.25 144.69C79.83 148.62 73.14 149.82 66.34 147.35C59.53 144.89 55.16 139.7 56.59 135.76C58.01 131.83 64.7 130.64 71.5 133.1C78.31 135.56 82.68 140.76 81.25 144.69Z" id="crixHdhE1"></path><path d="M93.88 145.34C92.25 141.49 96.33 136.07 103 133.25C109.67 130.43 116.41 131.26 118.04 135.11C119.67 138.96 115.59 144.38 108.92 147.21C102.25 150.03 95.52 149.19 93.88 145.34Z" id="dm0diNUEF"></path><path d="M197.07 91.34L215.38 114.85L152.17 163.99L133.86 140.49L197.07 91.34Z" id="d4v1TP5SfU"></path><path d="M132.89 137.86L166.23 138.01L166.1 167.81L132.76 167.66L132.89 137.86Z" id="a2IeIXwxuw"></path><path d="M133.66 152.4L166.05 160.35L158.94 189.28L126.56 181.33L133.66 152.4Z" id="b3w7egUHs5"></path><path d="M118.68 43.71L103.49 32.4L133.86 32.4L164.23 32.4L149.05 43.71L133.86 55.03L118.68 43.71Z" id="cTAogqADM"></path><path d="M78.66 148.64C78.66 154.88 72.78 159.95 65.54 159.95C58.3 159.95 52.43 154.88 52.43 148.64C52.43 142.39 58.3 137.32 65.54 137.32C72.78 137.32 78.66 142.39 78.66 148.64Z" id="da0GFYXUCM"></path><path d="M123.94 147.32C123.94 153.57 118.07 158.64 110.83 158.64C103.59 158.64 97.71 153.57 97.71 147.32C97.71 141.08 103.59 136.01 110.83 136.01C118.07 136.01 123.94 141.08 123.94 147.32Z" id="a4gbaeSpNU"></path><path d="M173.23 79.18C169.63 84.28 160.16 83.8 152.1 78.11C144.04 72.42 140.41 63.66 144.01 58.56C147.62 53.46 157.08 53.94 165.15 59.63C173.21 65.32 176.83 74.08 173.23 79.18Z" id="a1oNJSbskP"></path><path d="M302.34 70.62C302.34 76.86 296.46 81.93 289.22 81.93C281.99 81.93 276.11 76.86 276.11 70.62C276.11 64.38 281.99 59.31 289.22 59.31C296.46 59.31 302.34 64.38 302.34 70.62Z" id="bRApQ55Xk"></path><path d="M122.63 60.58C126.14 65.74 122.36 74.44 114.2 79.98C106.03 85.52 96.56 85.83 93.05 80.66C89.54 75.5 93.32 66.8 101.49 61.26C109.65 55.72 119.12 55.41 122.63 60.58Z" id="a2HOXGIZGQ"></path></defs><g><g><g><use xlink:href="#aijZa9onn" opacity="1" fill="#52c3f5" fill-opacity="1"></use></g><g><use xlink:href="#nH8fYc4W4" opacity="1" fill="#ffffff" fill-opacity="1"></use></g><g><use xlink:href="#c1Y7YuSOPq" opacity="1" fill="#ffffff" fill-opacity="1"></use></g><g><use xlink:href="#gfU8X9m00" opacity="1" fill="#52c3f5" fill-opacity="1"></use></g><g><use xlink:href="#a1eBh6eqct" opacity="1" fill="#ffffff" fill-opacity="1"></use></g><g><use xlink:href="#a1Dw3gpkrg" opacity="1" fill="#ffffff" fill-opacity="1"></use></g><g><use xlink:href="#j1Q9trxFBn" opacity="1" fill="#52c3f5" fill-opacity="1"></use></g><g><use xlink:href="#dXZNvquCQ" opacity="1" fill="#ffffff" fill-opacity="1"></use></g><g><use xlink:href="#a306Vqs99Z" opacity="1" fill="#52c3f5" fill-opacity="1"></use></g><g><use xlink:href="#af0DVxe9u" opacity="1" fill="#52c3f5" fill-opacity="1"></use></g><g><use xlink:href="#d58TDd3AoW" opacity="1" fill="#52c3f5" fill-opacity="1"></use></g><g><use xlink:href="#aCLqRYECI" opacity="1" fill="#ffffff" fill-opacity="1"></use></g><g><use xlink:href="#crixHdhE1" opacity="1" fill="#52c3f5" fill-opacity="1"></use></g><g><use xlink:href="#dm0diNUEF" opacity="1" fill="#52c3f5" fill-opacity="1"></use></g><g><use xlink:href="#d4v1TP5SfU" opacity="1" fill="#52c3f5" fill-opacity="1"></use></g><g><use xlink:href="#a2IeIXwxuw" opacity="1" fill="#52c3f5" fill-opacity="1"></use></g><g><use xlink:href="#b3w7egUHs5" opacity="1" fill="#52c3f5" fill-opacity="1"></use></g><g><use xlink:href="#cTAogqADM" opacity="1" fill="#52c3f5" fill-opacity="1"></use></g><g><use xlink:href="#da0GFYXUCM" opacity="1" fill="#ffffff" fill-opacity="1"></use></g><g><use xlink:href="#a4gbaeSpNU" opacity="1" fill="#ffffff" fill-opacity="1"></use></g><g><use xlink:href="#a1oNJSbskP" opacity="1" fill="#ffffff" fill-opacity="1"></use></g><g><use xlink:href="#bRApQ55Xk" opacity="1" fill="#ffffff" fill-opacity="1"></use></g><g><use xlink:href="#a2HOXGIZGQ" opacity="1" fill="#ffffff" fill-opacity="1"></use></g></g></g></svg>