<?xml version="1.0" encoding="UTF-8" standalone="no"?>
<!DOCTYPE svg PUBLIC "-//W3C//DTD SVG 1.1//EN" "http://www.w3.org/Graphics/SVG/1.1/DTD/svg11.dtd">
<svg version="1.1" xmlns="http://www.w3.org/2000/svg" xmlns:xlink="http://www.w3.org/1999/xlink" preserveAspectRatio="xMidYMid meet" viewBox="0 0 640 640" width="640" height="640"><defs><path d="M122.29 3.45L126.75 3.89L131.17 4.51L135.52 5.29L139.81 6.24L144.04 7.35L148.2 8.62L152.29 10.04L156.3 11.61L160.24 13.33L164.09 15.2L167.85 17.2L171.53 19.34L175.11 21.62L178.59 24.02L181.98 26.55L185.26 29.2L188.43 31.98L191.49 34.86L194.44 37.86L197.27 40.97L199.98 44.19L202.56 47.5L205.01 50.92L207.33 54.43L209.52 58.03L211.56 61.72L213.47 65.49L215.22 69.35L216.83 73.28L218.28 77.29L219.57 81.36L220.7 85.5L221.67 89.71L222.47 93.98L223.1 98.3L223.55 102.68L223.83 107.1L223.92 111.58L223.83 116.05L223.55 120.48L223.1 124.89L222.47 129.26L221.67 133.62L220.7 137.95L219.57 142.28L218.28 146.6L216.83 150.91L215.22 155.23L213.47 159.56L211.56 163.9L209.52 168.26L207.33 172.64L205.01 177.05L202.56 181.49L199.98 185.98L197.27 190.5L194.44 195.08L191.49 199.71L188.43 204.4L185.26 209.15L181.98 213.97L178.59 218.86L175.11 223.84L171.53 228.9L167.85 234.05L164.09 239.29L160.24 244.63L156.3 250.08L152.29 255.64L148.2 261.31L144.04 267.1L139.81 273.02L135.52 279.06L131.17 285.24L126.75 291.57L122.29 298.03L117.77 304.65L113.21 311.42L108.64 304.65L104.13 298.03L99.66 291.57L95.25 285.24L90.89 279.06L86.6 273.02L82.37 267.1L78.21 261.31L74.12 255.64L70.11 250.08L66.18 244.63L62.33 239.29L58.56 234.05L54.89 228.9L51.31 223.84L47.82 218.86L44.44 213.97L41.16 209.15L37.98 204.4L34.92 199.71L31.97 195.08L29.14 190.5L26.44 185.98L23.85 181.49L21.4 177.05L19.08 172.64L16.9 168.26L14.85 163.9L12.95 159.56L11.19 155.23L9.59 150.91L8.14 146.6L6.84 142.28L5.71 137.95L4.74 133.62L3.94 129.26L3.31 124.89L2.86 120.48L2.59 116.05L2.49 111.58L2.59 107.1L2.86 102.68L3.31 98.3L3.94 93.98L4.74 89.71L5.71 85.5L6.84 81.36L8.14 77.29L9.59 73.28L11.19 69.35L12.95 65.49L14.85 61.72L16.9 58.03L19.08 54.43L21.4 50.92L23.85 47.5L26.44 44.19L29.14 40.97L31.97 37.86L34.92 34.86L37.98 31.98L41.16 29.2L44.44 26.55L47.82 24.02L51.31 21.62L54.89 19.34L58.56 17.2L62.33 15.2L66.18 13.33L70.11 11.61L74.12 10.04L78.21 8.62L82.37 7.35L86.6 6.24L90.89 5.29L95.25 4.51L99.66 3.89L104.13 3.45L108.64 3.18L113.21 3.09L117.77 3.18L122.29 3.45Z" id="clRuMIuBw"></path><path d="M65.72 76.27C74.27 76.27 81.2 83.21 81.2 91.76C81.2 104.86 81.2 128.67 81.2 141.77C81.2 150.32 74.27 157.25 65.72 157.25C62.62 157.25 68.82 157.25 65.72 157.25C57.17 157.25 50.24 150.32 50.24 141.77C50.24 128.67 50.24 104.86 50.24 91.76C50.24 83.21 57.17 76.27 65.72 76.27C68.82 76.27 62.62 76.27 65.72 76.27Z" id="c1ofRIQY2v"></path><path d="M160.75 76.27C169.3 76.27 176.23 83.21 176.23 91.76C176.23 104.86 176.23 128.67 176.23 141.77C176.23 150.32 169.3 157.25 160.75 157.25C157.65 157.25 163.84 157.25 160.75 157.25C152.2 157.25 145.27 150.32 145.27 141.77C145.27 128.67 145.27 104.86 145.27 91.76C145.27 83.21 152.2 76.27 160.75 76.27C163.84 76.27 157.65 76.27 160.75 76.27Z" id="miM8nx8W"></path><path d="M77.44 108.43L146.27 108.43L146.27 127.48L77.44 127.48L77.44 108.43Z" id="a3JjHMqzLc"></path><path d="M185.28 94.73C188.31 94.73 190.76 97.19 190.76 100.21C190.76 108.41 190.76 127.5 190.76 135.7C190.76 138.72 188.31 141.18 185.28 141.18C184.19 141.18 186.38 141.18 185.28 141.18C182.26 141.18 179.8 138.72 179.8 135.7C179.8 127.5 179.8 108.41 179.8 100.21C179.8 97.19 182.26 94.73 185.28 94.73C186.38 94.73 184.19 94.73 185.28 94.73Z" id="a5PQKar8b"></path><path d="M41.13 94.73C44.16 94.73 46.61 97.19 46.61 100.21C46.61 108.41 46.61 127.5 46.61 135.7C46.61 138.72 44.16 141.18 41.13 141.18C40.03 141.18 42.23 141.18 41.13 141.18C38.1 141.18 35.65 138.72 35.65 135.7C35.65 127.5 35.65 108.41 35.65 100.21C35.65 97.19 38.1 94.73 41.13 94.73C42.23 94.73 40.03 94.73 41.13 94.73Z" id="ad1wI6OaB"></path></defs><g><g><g><use xlink:href="#clRuMIuBw" opacity="1" fill="#f352a3" fill-opacity="1"></use></g><g><use xlink:href="#c1ofRIQY2v" opacity="1" fill="#faf8fb" fill-opacity="1"></use></g><g><use xlink:href="#miM8nx8W" opacity="1" fill="#faf8fb" fill-opacity="1"></use></g><g><use xlink:href="#a3JjHMqzLc" opacity="1" fill="#faf8fb" fill-opacity="1"></use></g><g><use xlink:href="#a5PQKar8b" opacity="1" fill="#faf8fb" fill-opacity="1"></use></g><g><use xlink:href="#ad1wI6OaB" opacity="1" fill="#faf8fb" fill-opacity="1"></use></g></g></g></svg>